<?xml version="1.0" encoding="UTF-8"?>
<svg xmlns="http://www.w3.org/2000/svg" xmlns:xlink="http://www.w3.org/1999/xlink" width="105px" height="79px" viewBox="0 0 105 79" version="1.1">
<g id="surface1">
<path style="fill:none;stroke-width:5;stroke-linecap:butt;stroke-linejoin:miter;stroke:rgb(89.803922%,31.37255%,31.37255%);stroke-opacity:1;stroke-miterlimit:4;" d="M 222.965088 255.535162 L 285.978299 168.54274 " transform="matrix(0.181324,0,0,0.228782,-30.378048,-12.430723)"/>
<path style="fill:none;stroke-width:5;stroke-linecap:butt;stroke-linejoin:miter;stroke:rgb(89.803922%,31.37255%,31.37255%);stroke-opacity:1;stroke-miterlimit:4;" d="M 283.974802 167.535369 L 376.975839 300.54243 " transform="matrix(0.181324,0,0,0.228782,-30.378048,-12.430723)"/>
<path style="fill:none;stroke-width:5;stroke-linecap:butt;stroke-linejoin:miter;stroke:rgb(89.803922%,31.37255%,31.37255%);stroke-opacity:1;stroke-miterlimit:4;" d="M 226.972082 252.547199 L 280.980328 220.533304 " transform="matrix(0.181324,0,0,0.228782,-30.378048,-12.430723)"/>
<path style="fill:none;stroke-width:5;stroke-linecap:butt;stroke-linejoin:miter;stroke:rgb(89.803922%,31.37255%,31.37255%);stroke-opacity:1;stroke-miterlimit:4;" d="M 279.967808 219.543008 L 372.968845 295.539725 " transform="matrix(0.181324,0,0,0.228782,-30.378048,-12.430723)"/>
<path style=" stroke:none;fill-rule:nonzero;fill:rgb(0%,0%,0%);fill-opacity:1;" d="M 51.386719 47.492188 C 50.75 47.492188 50.191406 46.542969 49.71875 44.644531 C 49.539062 43.917969 49.3125 42.652344 49.042969 40.839844 C 48.332031 40.949219 47.40625 41.152344 46.257812 41.441406 L 43.484375 42.105469 C 43.136719 43.160156 42.542969 44.703125 41.703125 46.734375 C 41.480469 47.183594 41.175781 47.410156 40.796875 47.410156 C 40.515625 47.410156 40.265625 47.292969 40.046875 47.058594 C 39.828125 46.824219 39.722656 46.535156 39.722656 46.191406 C 39.722656 45.804688 40.246094 44.335938 41.296875 41.78125 C 41.175781 41.570312 41.117188 41.328125 41.117188 41.054688 C 41.117188 40.402344 41.457031 39.984375 42.140625 39.800781 C 42.933594 38.078125 43.933594 36.09375 45.144531 33.851562 C 46.789062 30.800781 47.816406 29.273438 48.21875 29.273438 C 48.765625 29.273438 49.140625 29.71875 49.34375 30.605469 L 50 34.664062 L 51.554688 43.058594 L 52.148438 44.96875 C 52.351562 45.621094 52.449219 46.058594 52.449219 46.273438 C 52.449219 46.621094 52.34375 46.910156 52.128906 47.144531 C 51.914062 47.378906 51.667969 47.492188 51.386719 47.492188 Z M 47.707031 33.6875 L 44.722656 39.253906 C 45.566406 39.003906 46.84375 38.703125 48.550781 38.347656 Z M 47.707031 33.6875 "/>
<path style=" stroke:none;fill-rule:nonzero;fill:rgb(0%,0%,0%);fill-opacity:1;" d="M 62.457031 37.828125 C 62.074219 37.828125 61.808594 37.679688 61.65625 37.382812 C 61.550781 37.175781 61.460938 36.738281 61.382812 36.078125 C 60.863281 36.230469 60.0625 36.511719 58.976562 36.921875 C 57.855469 37.4375 57.292969 38.078125 57.289062 38.832031 C 57.496094 38.921875 57.699219 38.984375 57.902344 39.023438 C 59.5 39.355469 60.691406 39.808594 61.46875 40.390625 C 62.601562 41.238281 63.167969 42.460938 63.167969 44.0625 C 63.167969 45.378906 62.679688 46.367188 61.699219 47.035156 C 60.882812 47.582031 59.855469 47.855469 58.609375 47.855469 C 57.699219 47.855469 56.832031 47.679688 56.003906 47.328125 C 54.933594 46.875 54.398438 46.246094 54.398438 45.441406 C 54.398438 45.121094 54.507812 44.839844 54.730469 44.597656 C 54.949219 44.351562 55.195312 44.230469 55.472656 44.230469 C 55.6875 44.230469 55.964844 44.425781 56.308594 44.8125 C 56.476562 44.996094 56.851562 45.152344 57.433594 45.269531 C 57.898438 45.367188 58.292969 45.414062 58.609375 45.414062 C 59.195312 45.414062 59.710938 45.335938 60.15625 45.171875 C 60.800781 44.941406 61.125 44.570312 61.125 44.0625 C 61.125 42.96875 60.464844 42.226562 59.140625 41.839844 L 58.058594 41.5625 C 57.132812 41.328125 56.476562 41.054688 56.089844 40.742188 C 55.527344 40.289062 55.246094 39.609375 55.246094 38.699219 C 55.246094 37.015625 55.929688 35.816406 57.296875 35.097656 C 57.714844 34.882812 58.382812 34.621094 59.296875 34.320312 C 60.214844 34.015625 60.875 33.761719 61.273438 33.554688 C 61.554688 33.410156 61.867188 33.335938 62.199219 33.335938 C 62.496094 33.335938 62.738281 33.449219 62.933594 33.675781 C 63.121094 33.898438 63.21875 34.195312 63.21875 34.554688 C 63.21875 34.789062 63.261719 35.128906 63.347656 35.582031 C 63.433594 36.035156 63.480469 36.375 63.480469 36.609375 C 63.480469 36.972656 63.382812 37.265625 63.191406 37.492188 C 63.003906 37.714844 62.757812 37.828125 62.457031 37.828125 Z M 62.457031 37.828125 "/>
<path style=" stroke:none;fill-rule:nonzero;fill:rgb(0%,0%,0%);fill-opacity:1;" d="M 72.789062 36.839844 C 72.644531 36.839844 72.46875 36.832031 72.269531 36.816406 C 72.074219 36.800781 71.902344 36.789062 71.757812 36.789062 C 71.597656 36.789062 71.125 36.851562 70.339844 36.972656 L 70.535156 44.109375 L 70.546875 44.644531 L 70.558594 45.257812 C 70.585938 47.023438 70.21875 47.90625 69.460938 47.90625 C 69.183594 47.90625 68.945312 47.800781 68.738281 47.589844 C 68.53125 47.382812 68.429688 47.117188 68.429688 46.804688 C 68.429688 46.5 68.441406 46.039062 68.460938 45.429688 C 68.480469 44.816406 68.492188 44.359375 68.492188 44.050781 L 68.289062 36.996094 C 67.777344 36.972656 67.003906 36.90625 65.972656 36.789062 C 65.351562 36.695312 65.042969 36.296875 65.042969 35.59375 C 65.042969 35.242188 65.136719 34.949219 65.324219 34.714844 C 65.511719 34.480469 65.753906 34.363281 66.046875 34.363281 L 68.234375 34.566406 C 68.234375 34.15625 68.21875 33.605469 68.1875 32.917969 C 68.15625 32.230469 68.140625 31.734375 68.140625 31.425781 C 68.140625 31.085938 68.242188 30.808594 68.441406 30.585938 C 68.644531 30.367188 68.890625 30.253906 69.183594 30.253906 C 69.808594 30.253906 70.171875 30.847656 70.277344 32.03125 C 70.296875 32.328125 70.308594 32.6875 70.308594 33.105469 L 70.289062 33.808594 L 70.277344 34.554688 C 71.136719 34.429688 71.632812 34.363281 71.757812 34.363281 C 72.480469 34.363281 72.953125 34.40625 73.175781 34.484375 C 73.597656 34.644531 73.808594 35.023438 73.808594 35.617188 C 73.808594 35.972656 73.714844 36.265625 73.523438 36.496094 C 73.332031 36.726562 73.085938 36.839844 72.789062 36.839844 Z M 72.789062 36.839844 "/>
<path style=" stroke:none;fill-rule:nonzero;fill:rgb(0%,0%,0%);fill-opacity:1;" d="M 83.988281 38.203125 C 83.9375 39.210938 83.589844 39.714844 82.945312 39.714844 C 82.347656 39.714844 82.046875 39.316406 82.046875 38.519531 C 82.046875 38.367188 82.035156 38.085938 82.015625 37.671875 L 81.984375 36.65625 C 80.886719 36.8125 80.007812 37.167969 79.347656 37.730469 C 78.726562 38.257812 78.210938 39.046875 77.804688 40.097656 L 77.824219 46.722656 C 77.824219 47.535156 77.480469 47.941406 76.792969 47.941406 C 76.179688 47.941406 75.875 47.535156 75.875 46.722656 L 75.875 38.242188 C 75.875 37.976562 75.882812 37.574219 75.898438 37.046875 C 75.917969 36.515625 75.925781 36.113281 75.925781 35.847656 C 75.925781 35.035156 76.234375 34.628906 76.847656 34.628906 C 77.527344 34.628906 77.871094 35.296875 77.878906 36.632812 C 79.210938 35.144531 80.691406 34.398438 82.320312 34.398438 C 82.882812 34.398438 83.300781 34.644531 83.578125 35.132812 C 83.859375 35.625 84 36.367188 84 37.359375 C 84 37.777344 83.996094 38.058594 83.988281 38.203125 Z M 83.988281 38.203125 "/>
<path style=" stroke:none;fill-rule:nonzero;fill:rgb(0%,0%,0%);fill-opacity:1;" d="M 94.277344 47.929688 C 94.144531 47.929688 93.902344 47.75 93.554688 47.398438 C 93.246094 47.066406 93.011719 46.773438 92.855469 46.515625 C 92.1875 46.933594 91.601562 47.25 91.09375 47.460938 C 90.589844 47.679688 90.164062 47.785156 89.824219 47.785156 C 88.195312 47.785156 87.011719 47.253906 86.269531 46.191406 C 85.566406 45.191406 85.214844 43.660156 85.214844 41.597656 C 85.214844 39.648438 85.792969 37.984375 86.949219 36.597656 C 88.105469 35.210938 89.488281 34.519531 91.09375 34.519531 C 91.699219 34.519531 92.378906 34.703125 93.128906 35.066406 C 94.074219 35.515625 94.546875 36.054688 94.546875 36.691406 C 94.546875 36.910156 94.476562 37.105469 94.339844 37.273438 C 94.269531 37.578125 94.214844 38.082031 94.175781 38.785156 C 94.136719 39.484375 94.117188 40.382812 94.109375 41.476562 C 94.101562 42.476562 94.160156 43.265625 94.289062 43.84375 C 94.355469 44.203125 94.574219 44.910156 94.941406 45.972656 C 94.992188 46.117188 95.070312 46.332031 95.183594 46.613281 L 95.246094 46.816406 C 95.246094 47.136719 95.148438 47.40625 94.949219 47.613281 C 94.757812 47.824219 94.53125 47.929688 94.277344 47.929688 Z M 92.109375 39.535156 C 92.109375 39.1875 92.125 38.808594 92.164062 38.40625 C 92.199219 38 92.257812 37.5625 92.335938 37.105469 C 92.082031 36.953125 91.859375 36.839844 91.671875 36.765625 C 91.488281 36.695312 91.34375 36.65625 91.230469 36.65625 C 90.152344 36.65625 89.222656 37.167969 88.441406 38.1875 C 87.660156 39.207031 87.269531 40.378906 87.269531 41.707031 C 87.269531 43.03125 87.472656 44.019531 87.871094 44.683594 C 88.277344 45.34375 88.882812 45.671875 89.6875 45.671875 C 90.355469 45.671875 90.921875 45.53125 91.386719 45.246094 C 91.636719 45.09375 91.988281 44.789062 92.441406 44.328125 C 92.21875 42.195312 92.109375 40.597656 92.109375 39.535156 Z M 92.109375 39.535156 "/>
</g>
</svg>
